<svg xmlns="http://www.w3.org/2000/svg" width="210" height="240" viewBox="0 0 210 240" version="1.1">
	<path d="M 61.500 12.184 C 59.850 12.773, 57.445 14.210, 56.155 15.377 C 51.144 19.913, 50.853 21.592, 50.770 46.448 C 50.655 80.914, 50.726 81, 79.234 81 L 97 81 97 96 L 97 111 70.960 111 C 33.914 111, 34.777 110.372, 34.952 137.220 L 35.062 154 25.243 154 C 12.735 154, 7.691 156.159, 4.211 163 C 2.017 167.315, 1.934 168.332, 2.211 187.680 C 2.533 210.171, 2.829 211.215, 10.105 215.500 C 13.282 217.372, 15.298 217.500, 41.500 217.500 C 81.466 217.500, 79.991 218.719, 79.996 185.700 C 80.001 160.783, 79.679 159.475, 72.712 156.102 C 69.090 154.349, 66.507 154, 57.158 154 L 45.948 154 46.224 138.750 L 46.500 123.500 100.887 123.241 C 140.221 123.054, 155.651 123.296, 156.637 124.114 C 157.672 124.973, 158 128.705, 158 139.622 L 158 154 147.122 154 C 134.814 154, 130.684 155.209, 126.659 159.993 C 123.137 164.180, 122.783 166.974, 123.167 187.600 C 123.460 203.333, 123.742 205.911, 125.500 208.895 C 130.328 217.092, 136.911 218.452, 168.500 217.783 C 191.951 217.286, 194.125 216.857, 198.588 211.845 C 202.695 207.233, 203.137 204.288, 202.811 183.716 C 202.457 161.420, 202.134 160.417, 193.980 156.250 C 190.257 154.348, 187.986 154, 179.288 154 L 169 154 168.998 137.750 C 168.996 110.852, 169.195 111.004, 133.750 111.002 L 109 111 109 96.063 L 109 81.126 126.930 80.813 C 143.209 80.529, 145.120 80.309, 147.680 78.429 C 153.516 74.142, 153.997 71.750, 153.998 46.962 C 154 25.569, 153.886 24.198, 151.750 19.985 C 150.418 17.356, 148.073 14.721, 146 13.523 C 142.667 11.597, 140.635 11.491, 103.500 11.306 C 77.829 11.179, 63.475 11.479, 61.500 12.184 M 64.141 23.892 C 63.056 24.579, 62.813 29.068, 62.941 46.126 C 63.028 57.882, 63.477 67.877, 63.938 68.338 C 65.347 69.747, 140.294 69.137, 141.201 67.709 C 142.533 65.613, 142.164 25.564, 140.800 24.200 C 139.370 22.770, 66.374 22.477, 64.141 23.892 M 15 168 C 13.171 169.829, 13 171.333, 13 185.566 C 13 194.383, 13.449 201.970, 14.035 203.066 C 15.017 204.900, 16.381 205, 40.413 205 C 59.983 205, 66.001 204.704, 66.834 203.700 C 67.499 202.899, 67.965 195.918, 68.048 185.504 C 68.170 170.352, 68 168.473, 66.401 167.304 C 65.053 166.318, 58.803 166, 40.809 166 C 18.333 166, 16.888 166.112, 15 168 M 136.563 167.931 C 135.016 169.639, 134.855 171.761, 135.158 186.381 C 135.353 195.789, 135.939 203.340, 136.520 203.920 C 137.973 205.372, 187.249 205.472, 189.947 204.029 C 191.891 202.988, 192 202.049, 192 186.399 C 192 176.916, 191.559 169.044, 190.965 167.934 C 189.982 166.099, 188.614 166, 164.120 166 C 139.889 166, 138.203 166.118, 136.563 167.931" stroke="none" fill="#000000" fill-rule="evenodd"/>
</svg>