<svg xmlns="http://www.w3.org/2000/svg" width="251" height="217" viewBox="0 0 251 217" version="1.1">
	<path d="M 111.286 17.386 C 93.987 23.060, 83.925 38.770, 86.050 56.789 C 89.734 88.040, 130.089 98.901, 149.029 73.739 C 156.467 63.858, 158.340 50.330, 153.911 38.491 C 151.167 31.157, 143.471 22.841, 136.279 19.439 C 129.434 16.201, 117.810 15.246, 111.286 17.386 M 114.500 29.168 C 101.635 34.008, 94.850 46.136, 98.339 58.057 C 101.528 68.956, 109.854 75.439, 120.598 75.387 C 141.866 75.286, 152.516 51.161, 138.136 35.658 C 132.567 29.654, 121.375 26.581, 114.500 29.168 M 55.167 87.553 C 47.071 91.603, 42.012 96.803, 38.192 105 C 36.063 109.569, 35.618 112.024, 35.564 119.500 C 35.508 127.350, 35.847 129.203, 38.216 134 C 39.710 137.025, 41.639 140.455, 42.503 141.622 C 44.011 143.659, 43.875 143.872, 39.095 146.939 C 24.116 156.551, 11 178.171, 11 193.249 C 11 201.696, 1.109 201, 121.138 201 C 210.785 201, 227.920 200.779, 229.531 199.601 C 231.054 198.487, 231.397 197.138, 231.216 192.974 C 230.470 175.826, 219.821 157.390, 205.247 148.016 L 198.385 143.602 201.603 138.259 C 205.781 131.321, 207.371 124.436, 206.763 115.928 C 206.112 106.837, 202.514 99.585, 195.452 93.131 C 187.883 86.212, 180.953 83.724, 170.476 84.164 C 156.190 84.763, 145.345 91.970, 139.125 105 C 136.888 109.688, 136.502 111.829, 136.515 119.500 C 136.533 129.397, 138.913 136.691, 143.547 141.044 L 145.932 143.285 141.768 145.345 C 136.527 147.938, 125.911 158.286, 123.347 163.302 L 121.404 167.103 117.541 161.495 C 113.130 155.090, 106.237 148.683, 100.725 145.864 L 96.950 143.934 99.828 139.717 C 104.484 132.898, 106.311 125.934, 105.793 116.988 C 105.210 106.918, 101.886 99.924, 94.452 93.131 C 87.281 86.577, 80.408 84, 70.097 84 C 63.128 84, 61.490 84.390, 55.167 87.553 M 66 96.068 C 60.340 97.212, 54.422 101.323, 50.592 106.773 C 46.797 112.172, 45.902 120.836, 48.449 127.507 C 50.439 132.717, 55.433 138.028, 60.683 140.520 C 75.961 147.770, 94 136.393, 94 119.508 C 94 112.817, 92.013 107.663, 87.699 103.162 C 81.619 96.819, 74.233 94.404, 66 96.068 M 163.137 97.369 C 158.086 99.197, 152.479 104.379, 149.991 109.519 C 148.217 113.183, 147.854 115.369, 148.177 120.444 C 148.749 129.418, 152.606 135.467, 160.252 139.377 C 174.686 146.759, 190.494 139.594, 194.959 123.646 C 197.452 114.744, 191.754 103.204, 182.554 98.519 C 177.033 95.707, 169.037 95.234, 163.137 97.369 M 150.454 153.775 C 139.380 159.403, 128.169 174.865, 127.698 185.159 L 127.500 189.500 173.232 189.786 L 218.964 190.071 218.370 186.786 C 216.327 175.487, 204.735 160.238, 193.872 154.557 L 188.244 151.614 181.229 153.307 C 172.283 155.466, 168.584 155.438, 161.244 153.153 L 155.311 151.306 150.454 153.775 M 48.698 155.262 C 40.295 159.951, 32.628 167.950, 28.469 176.366 C 26.530 180.290, 24.844 184.850, 24.722 186.500 L 24.500 189.500 70 189.500 L 115.500 189.500 115.199 185.500 C 114.417 175.108, 104.078 160.985, 92.883 155.018 L 86.820 151.787 81.095 153.393 C 73.953 155.397, 67.749 155.434, 61.409 153.511 C 55.009 151.569, 55.414 151.514, 48.698 155.262" stroke="none" fill="#000000" fill-rule="evenodd"/>
</svg>