<svg xmlns="http://www.w3.org/2000/svg" width="232" height="285" viewBox="0 0 232 285" version="1.1">
	<path d="M 111 23.977 C 109.137 25.153, 108.213 45.661, 109.882 48.780 C 111.163 51.174, 113.817 51.982, 116.787 50.883 C 118.907 50.099, 119 49.546, 119 37.732 C 119 29.474, 118.604 25.004, 117.800 24.200 C 116.369 22.769, 113.085 22.661, 111 23.977 M 37.267 52.250 C 36.729 52.938, 36.020 54.592, 35.692 55.927 C 35.188 57.973, 36.450 59.739, 43.728 67.177 C 52.745 76.391, 55.251 77.590, 58.345 74.171 C 61.496 70.690, 60.369 68.134, 51.823 59.378 C 45.560 52.962, 43.013 51, 40.945 51 C 39.460 51, 37.805 51.563, 37.267 52.250 M 178.134 60.032 C 173.660 64.999, 170 69.879, 170 70.877 C 170 73.204, 173.082 76, 175.648 76 C 177.905 76, 195 59.085, 195 56.851 C 195 54.036, 191.928 51, 189.078 51 C 186.807 51, 184.710 52.730, 178.134 60.032 M 97.373 64.979 C 55.506 75.955, 34.475 121.702, 53.458 160.500 C 56.016 165.728, 60.640 172.821, 64.491 177.424 C 68.137 181.782, 72.231 187.244, 73.588 189.561 C 77.327 195.940, 78.963 205.665, 78.983 221.624 C 79.002 236.997, 79.967 241.468, 84.568 247.500 C 86.023 249.408, 88.692 251.882, 90.498 252.999 C 92.896 254.481, 93.970 256.025, 94.475 258.718 C 96.876 271.516, 108.634 278.833, 120.633 274.995 C 127.369 272.841, 134 264.673, 134 258.530 C 134 257.128, 134.787 255.341, 135.750 254.560 C 136.713 253.778, 138.940 251.962, 140.699 250.523 C 142.458 249.085, 145.138 245.372, 146.655 242.273 C 149.274 236.921, 149.441 235.708, 149.998 218.062 C 150.571 199.916, 150.656 199.335, 153.684 192.993 C 155.388 189.422, 160.193 182.450, 164.360 177.500 C 173.177 167.028, 178.215 157.674, 181.007 146.590 C 189.915 111.233, 167.745 74.014, 132.391 64.972 C 122.302 62.392, 107.229 62.395, 97.373 64.979 M 105.763 74.033 C 78.053 78.699, 57 103.010, 57 130.342 C 57 145.487, 61.089 155.658, 73.365 171.044 C 83.269 183.458, 86.809 190.685, 88.284 201.500 L 89.443 210 95.783 210 L 102.123 210 101.555 205.750 C 100.893 200.787, 98 163.902, 98 160.421 C 98 158.749, 97.042 157.570, 94.750 156.418 C 89.878 153.969, 88.048 151.127, 88.022 145.973 C 87.995 140.404, 89.991 137.373, 94.505 136.126 C 100.183 134.558, 105.196 136.799, 107.090 141.750 C 107.869 143.788, 108.612 144, 114.975 144 C 120.432 144, 122 143.678, 122 142.556 C 122 141.761, 123.052 139.889, 124.337 138.395 C 126.310 136.101, 127.434 135.690, 131.564 135.752 C 135.725 135.815, 136.870 136.290, 139.228 138.929 C 144.675 145.025, 142.006 153.719, 133.946 156.134 L 130 157.317 130 163.579 C 130 170.408, 128.349 197.606, 127.468 205.299 L 126.918 210.098 133.209 209.799 L 139.500 209.500 140.198 203.173 C 141.528 191.112, 144.866 184.070, 154.976 172 C 167.630 156.892, 172 146.395, 172 131.105 C 172 120.547, 170.133 112.959, 165.232 103.592 C 154.157 82.428, 129.295 70.070, 105.763 74.033 M 4.682 129.799 C 2.639 132.057, 2.504 135.344, 4.392 136.910 C 5.316 137.678, 9.725 137.970, 17.522 137.783 C 27.994 137.531, 29.404 137.283, 30.592 135.491 C 31.666 133.871, 31.684 132.999, 30.685 130.991 C 29.484 128.579, 29.078 128.491, 17.905 128.220 C 7.712 127.972, 6.168 128.157, 4.682 129.799 M 201.571 129.571 C 199.745 131.398, 199.583 133.353, 201.035 136.066 C 201.961 137.795, 203.216 138, 212.880 138 C 222.083 138, 223.936 137.728, 225.345 136.171 C 227.423 133.875, 227.452 131.595, 225.429 129.571 C 224.202 128.345, 221.582 128, 213.500 128 C 205.418 128, 202.798 128.345, 201.571 129.571 M 108 160.905 C 108 163.052, 108.642 170.815, 109.427 178.155 C 110.211 185.495, 111.159 195.662, 111.533 200.750 C 112.180 209.556, 112.323 210, 114.527 210 C 117.145 210, 116.688 212.957, 119.478 178 C 120.335 167.275, 121.027 158.162, 121.018 157.750 C 121.008 157.338, 118.075 157, 114.500 157 L 108 157 108 160.905 M 89 224.017 L 89 228.034 114.250 227.767 L 139.500 227.500 139.810 223.750 L 140.121 220 114.560 220 L 89 220 89 224.017 M 113.500 238 L 90.500 238.500 95.224 243.250 L 99.947 248 113.939 248 L 127.930 248 131.503 244.863 C 134.746 242.016, 137.661 238.077, 136.831 237.664 C 136.649 237.574, 126.150 237.725, 113.500 238 M 105 258.566 C 105 260.291, 107.434 263.173, 110.021 264.511 C 113.520 266.320, 117.499 265.647, 120.750 262.694 C 124.990 258.844, 123.776 258, 114 258 C 109.050 258, 105 258.255, 105 258.566" stroke="none" fill="#000000" fill-rule="evenodd"/>
</svg>