<svg xmlns="http://www.w3.org/2000/svg" width="230" height="223" viewBox="0 0 230 223" version="1.1">
	<path d="M 99.487 8.744 C 78.445 16.250, 66.130 36.235, 69.140 57.993 C 71.770 77.001, 87.457 92.910, 106.706 96.089 C 130.207 99.970, 152.772 83.257, 157.019 58.824 C 160.316 39.857, 149.963 20.033, 132.166 11.237 C 125.249 7.819, 123.917 7.517, 114.591 7.247 C 106.861 7.024, 103.327 7.374, 99.487 8.744 M 107.132 18.093 C 80.511 23.230, 70.481 56.534, 89.751 75.804 C 105.940 91.993, 133.005 87.330, 142.926 66.642 C 146.834 58.494, 147.595 51.888, 145.554 43.841 C 141.129 26.404, 123.900 14.857, 107.132 18.093 M 110.200 23.200 C 109.540 23.860, 109 25.198, 109 26.174 C 109 27.150, 107.761 28.589, 106.248 29.372 C 96.356 34.487, 95.798 47.180, 105.197 53.274 C 107.509 54.773, 110.008 56, 110.750 56 C 111.492 56, 113.427 56.687, 115.050 57.526 C 117.306 58.692, 118 59.746, 118 62.003 C 118 67.920, 110.213 69.756, 107.779 64.413 C 106.200 60.948, 100.306 60.933, 99.438 64.392 C 98.599 67.734, 101.443 72.739, 105.562 75.169 C 107.453 76.285, 109 77.998, 109 78.976 C 109 83.904, 115.674 83.880, 116.660 78.949 C 116.978 77.360, 118.057 75.799, 119.057 75.482 C 122.040 74.535, 126.685 68.494, 127.413 64.615 C 127.900 62.017, 127.538 59.743, 126.130 56.561 C 124.103 51.978, 120.875 49.686, 112.742 47.055 C 107.847 45.472, 106.298 42.720, 108.452 39.433 C 110.658 36.066, 115.200 36.131, 117.448 39.560 C 119.375 42.501, 123.590 42.631, 125.360 39.804 C 126.888 37.363, 123.848 31.490, 120.038 29.520 C 118.367 28.656, 117 27.150, 117 26.174 C 117 23.967, 115.115 22, 113 22 C 112.120 22, 110.860 22.540, 110.200 23.200 M 4.775 56.559 C 3.276 57.372, 1.589 58.900, 1.025 59.953 C 0.394 61.131, 0 72.719, 0 90.065 C 0 120.755, 1.120 131.883, 5.660 146.295 C 9.549 158.640, 14.008 165.097, 29.692 181.091 L 44 195.682 44 203.341 C 44 215.413, 43.013 215, 71.845 215 C 94.145 215, 95.803 214.875, 97.439 213.067 C 99.022 211.318, 99.156 208.909, 98.844 187.762 L 98.500 164.391 94.791 156.888 C 91.480 150.192, 88.640 146.934, 68.350 126.559 C 45.739 103.852, 40.978 100.073, 34.916 100.022 C 32.341 100, 32.324 99.942, 30.136 84.250 C 27.673 66.579, 25.547 60.859, 20.102 57.251 C 16.106 54.604, 8.972 54.281, 4.775 56.559 M 208.500 55.959 C 205.642 57.150, 201.320 61.992, 199.986 65.500 C 199.359 67.150, 197.744 74.800, 196.397 82.500 C 193.344 99.952, 193.330 99.995, 190.683 100.022 C 184.621 100.083, 179.363 104.256, 157.500 126.357 C 143.010 141.005, 134.546 150.362, 132.704 153.768 C 128.259 161.990, 127.037 170.151, 127.017 191.750 C 127.001 209.679, 127.137 211.137, 129 213 C 130.888 214.888, 132.333 215, 154.845 215 C 183.459 215, 182 215.645, 182 203.005 L 182 194.667 195.992 180.577 C 203.688 172.827, 211.165 164.749, 212.608 162.626 C 222.794 147.636, 227.966 122.158, 227.960 87 C 227.957 69.115, 227.718 65.975, 226.086 62.383 C 225.058 60.118, 223.168 57.530, 221.886 56.633 C 219.409 54.898, 211.950 54.523, 208.500 55.959 M 9.411 67.500 C 8.155 72.501, 9.696 116.010, 11.482 126 C 13.520 137.397, 17.178 148.856, 20.739 155 C 22.174 157.475, 30.245 166.531, 38.674 175.124 L 54 190.748 54 197.374 L 54 204 71.500 204 L 89 204 88.992 190.250 C 88.984 174.610, 87.774 165.437, 85.003 160.007 C 82.666 155.426, 41.750 113.956, 37.293 111.652 C 33.135 109.501, 32.303 109.566, 30.921 112.147 C 28.556 116.566, 31.305 121.123, 46.425 137.849 C 54.320 146.583, 61.075 154.661, 61.437 155.801 C 62.386 158.792, 60.023 162, 56.871 162 C 54.788 162, 52.103 159.708, 44.282 151.250 C 23.655 128.943, 20 123.502, 20 115.102 C 20 113.361, 20.604 110.488, 21.342 108.718 C 22.504 105.931, 22.373 103.158, 20.363 88.017 C 17.923 69.641, 16.561 65.837, 12.185 65.185 C 10.610 64.950, 9.902 65.540, 9.411 67.500 M 212.400 65.751 C 210.039 67.358, 208.792 71.681, 205.956 88.090 C 203.266 103.652, 203.141 105.372, 204.506 108.012 C 208.531 115.796, 205.234 124.494, 192.947 138.500 C 172.314 162.019, 169.453 164.311, 165.571 160.429 C 162.745 157.602, 163.885 155.111, 172.250 145.830 C 189.681 126.491, 192.250 123.371, 194.154 119.223 C 197.327 112.312, 194.833 108.742, 188.694 111.406 C 183.655 113.593, 143.322 155.060, 140.689 160.761 C 138.723 165.017, 138.467 167.463, 138.174 184.750 L 137.847 204 154.924 204 L 172 204 172 197.557 C 172 191.197, 172.070 191.033, 177.436 184.807 C 180.425 181.338, 187.417 174.035, 192.973 168.577 C 201.310 160.388, 203.770 157.243, 207.055 150.577 C 214.022 136.437, 218.057 112.745, 217.942 86.644 C 217.859 67.606, 216.607 62.888, 212.400 65.751" stroke="none" fill="#000000" fill-rule="evenodd"/>
</svg>