<svg xmlns="http://www.w3.org/2000/svg" width="221" height="160" viewBox="0 0 221 160" version="1.1">
	<path d="M 29.734 1.074 C 19.985 3.408, 10.667 11.209, 6.170 20.804 L 3.500 26.500 3.500 79.521 L 3.500 132.542 6.792 139.229 C 10.371 146.499, 15.371 151.465, 22.864 155.193 L 27.500 157.500 110.653 157.772 C 192.711 158.041, 193.879 158.017, 199.355 155.968 C 206.613 153.253, 213.837 146.649, 217.536 139.350 L 220.500 133.500 220.500 79.500 L 220.500 25.500 217.730 19.858 C 214.355 12.987, 207.765 6.718, 200.175 3.160 L 194.500 0.500 114 0.336 C 68.997 0.244, 31.840 0.570, 29.734 1.074 M 27.105 14.635 C 21.216 17.569, 16.589 23.098, 14.961 29.145 C 14.297 31.610, 14.030 50.440, 14.214 81.821 L 14.500 130.660 17.536 135.580 C 19.581 138.894, 22.341 141.561, 25.992 143.750 L 31.412 147 111.890 147 C 191.454 147, 192.418 146.976, 196.682 144.912 C 201.965 142.354, 207.285 136.328, 208.839 131.142 C 210.323 126.189, 210.466 33.219, 208.998 27.935 C 207.652 23.086, 201.487 16.126, 196.556 13.886 C 192.725 12.146, 188.053 12.043, 112.446 12.022 L 32.393 12 27.105 14.635 M 178.500 31.872 C 175.806 33.103, 166.667 41.779, 150.500 58.455 C 137.300 72.070, 126.122 83.870, 125.660 84.677 C 123.693 88.113, 116 110.337, 116 112.585 C 116 116.313, 119.794 117.666, 124.111 115.477 C 143.922 105.433, 145.605 104.090, 170.606 78.394 C 183.748 64.888, 195.276 52.186, 196.224 50.169 C 198.433 45.467, 198.398 43.473, 196.012 38.216 C 194.528 34.946, 193.054 33.472, 189.784 31.988 C 184.502 29.591, 183.514 29.581, 178.500 31.872 M 161.774 62.221 L 141.048 83.500 143.439 85.893 L 145.831 88.285 165.665 68.048 C 176.574 56.917, 185.901 46.964, 186.392 45.929 C 187.340 43.931, 185.719 41.025, 183.628 40.971 C 183.007 40.954, 173.173 50.517, 161.774 62.221 M 36.566 49.328 C 35.548 50.072, 34.750 51.906, 34.750 53.500 C 34.750 59.010, 34.665 59, 81.120 59 C 118.639 59, 124.049 58.808, 125.429 57.429 C 127.658 55.199, 127.447 50.310, 125.066 49.035 C 121.940 47.362, 38.879 47.637, 36.566 49.328 M 36.050 77.440 C 34.279 79.573, 35.172 84.291, 37.572 85.480 C 38.874 86.125, 51.842 86.473, 72.466 86.416 C 103.213 86.331, 105.375 86.208, 106.644 84.472 C 108.437 82.019, 108.359 79.502, 106.429 77.571 C 105.062 76.205, 100.451 76, 71.051 76 C 42.852 76, 37.047 76.239, 36.050 77.440 M 132.995 94.512 C 132.415 96.039, 131.702 97.673, 131.411 98.144 C 130.475 99.658, 133.426 99.012, 135.805 97.182 L 138.109 95.409 136.080 93.572 C 134.093 91.775, 134.029 91.794, 132.995 94.512 M 36.792 104.250 C 34.041 106.412, 33.683 109.683, 35.949 111.949 C 37.907 113.907, 39.127 114, 62.777 114 C 83.585 114, 87.911 113.751, 89.777 112.443 C 92.473 110.555, 92.658 106.905, 90.171 104.655 C 88.572 103.208, 85.203 103, 63.362 103 C 44.893 103, 37.968 103.326, 36.792 104.250" stroke="none" fill="#000000" fill-rule="evenodd"/>
</svg>
